<svg xmlns="http://www.w3.org/2000/svg" xmlns:xlink="http://www.w3.org/1999/xlink" aria-hidden="true" role="img" class="iconify iconify--ph" width="1em" height="1em" viewBox="0 0 256 256" style="color: rgb(255, 255, 255); font-size: 32px; background-color: rgb(0, 0, 0); border-radius: 100px; padding: 5px;">
  <path fill="currentColor" d="M224 216a8 8 0 0 1-8 8H40a8 8 0 0 1 0-16h176a8 8 0 0 1 8 8M80 176a8 8 0 0 0 5.66-2.34L184 75.31V152a8 8 0 0 0 16 0V56a8 8 0 0 0-8-8H96a8 8 0 0 0 0 16h76.69l-98.35 98.34A8 8 0 0 0 80 176"></path>
</svg>